<?xml version="1.0" encoding="utf-8"?>
<!-- Generator: Adobe Illustrator 12.0.0, SVG Export Plug-In . SVG Version: 6.00 Build 51448)  -->
<!DOCTYPE svg PUBLIC "-//W3C//DTD SVG 1.1//EN" "http://www.w3.org/Graphics/SVG/1.1/DTD/svg11.dtd" [
	<!ENTITY ns_svg "http://www.w3.org/2000/svg">
	<!ENTITY ns_xlink "http://www.w3.org/1999/xlink">
]>
<svg  version="1.1" id="Layer_1" xmlns="&ns_svg;" xmlns:xlink="&ns_xlink;" width="270.936" height="258.637"
	 viewBox="0 0 270.936 258.637" overflow="visible" enable-background="new 0 0 270.936 258.637" xml:space="preserve">
<linearGradient id="XMLID_116_" gradientUnits="userSpaceOnUse" x1="38.584" y1="220.0542" x2="220.0539" y2="38.5843">
	<stop  offset="0.0732" style="stop-color:#FFFFFF"/>
	<stop  offset="0.1907" style="stop-color:#E4E4E4"/>
	<stop  offset="0.3024" style="stop-color:#CFCFCF"/>
	<stop  offset="0.7805" style="stop-color:#C8C8C8"/>
	<stop  offset="1" style="stop-color:#484848"/>
	<stop  offset="1" style="stop-color:#D1D1D1"/>
</linearGradient>
<circle fill="url(#XMLID_116_)" stroke="#000000" stroke-width="2" cx="129.319" cy="129.319" r="128.319"/>
<linearGradient id="XMLID_117_" gradientUnits="userSpaceOnUse" x1="83.7036" y1="178.8003" x2="121.7563" y2="178.8003" gradientTransform="matrix(0.9148 -0.404 0.404 0.9148 -60.8749 55.044)">
	<stop  offset="0" style="stop-color:#000000"/>
	<stop  offset="0.0982" style="stop-color:#252525"/>
	<stop  offset="0.2875" style="stop-color:#666666"/>
	<stop  offset="0.4679" style="stop-color:#9D9D9D"/>
	<stop  offset="0.6342" style="stop-color:#C7C7C7"/>
	<stop  offset="0.7835" style="stop-color:#E6E6E6"/>
	<stop  offset="0.9104" style="stop-color:#F8F8F8"/>
	<stop  offset="1" style="stop-color:#FFFFFF"/>
</linearGradient>
<path fill="url(#XMLID_117_)" d="M122.732,169.421c4.541,10.283,0.43,22.061-9.183,26.306c-9.612,4.244-21.086-0.651-25.627-10.935
	c-4.542-10.283-0.43-22.061,9.183-26.305C106.718,154.242,118.191,159.137,122.732,169.421z"/>
<linearGradient id="XMLID_118_" gradientUnits="userSpaceOnUse" x1="33.7168" y1="183.2251" x2="70.8843" y2="183.2251" gradientTransform="matrix(0.9751 -0.222 0.222 0.9751 -39.3651 16.1803)">
	<stop  offset="0" style="stop-color:#000000"/>
	<stop  offset="0.0046" style="stop-color:#040404"/>
	<stop  offset="0.0515" style="stop-color:#2B2B2B"/>
	<stop  offset="0.1018" style="stop-color:#4C4C4C"/>
	<stop  offset="0.1555" style="stop-color:#676767"/>
	<stop  offset="0.2137" style="stop-color:#7C7C7C"/>
	<stop  offset="0.2788" style="stop-color:#8B8B8B"/>
	<stop  offset="0.3563" style="stop-color:#939393"/>
	<stop  offset="0.478" style="stop-color:#969696"/>
	<stop  offset="1" style="stop-color:#FFFFFF"/>
</linearGradient>
<path fill="url(#XMLID_118_)" d="M70.42,179.1c2.83,12.432-2.989,24.356-12.997,26.634c-10.007,2.278-20.414-5.953-23.244-18.384
	c-2.83-12.43,2.989-24.354,12.997-26.632C57.184,158.44,67.591,166.67,70.42,179.1z"/>
<linearGradient id="XMLID_119_" gradientUnits="userSpaceOnUse" x1="84.2056" y1="233.4048" x2="110.3032" y2="233.4048" gradientTransform="matrix(0.6048 -0.7964 0.7964 0.6048 -131.102 168.4554)">
	<stop  offset="0" style="stop-color:#000000"/>
	<stop  offset="0.0315" style="stop-color:#0B0B0B"/>
	<stop  offset="0.2435" style="stop-color:#545454"/>
	<stop  offset="0.4429" style="stop-color:#919191"/>
	<stop  offset="0.6239" style="stop-color:#C1C1C1"/>
	<stop  offset="0.7827" style="stop-color:#E3E3E3"/>
	<stop  offset="0.9135" style="stop-color:#F7F7F7"/>
	<stop  offset="1" style="stop-color:#FFFFFF"/>
</linearGradient>
<path fill="url(#XMLID_119_)" d="M121.485,221.782c6.421,4.877,8.094,13.484,3.736,19.224c-4.359,5.738-13.099,6.436-19.521,1.56
	c-6.422-4.878-8.095-13.483-3.736-19.223C106.323,217.604,115.063,216.905,121.485,221.782z"/>
<linearGradient id="XMLID_120_" gradientUnits="userSpaceOnUse" x1="85.3184" y1="59.9634" x2="111.417" y2="59.9634" gradientTransform="matrix(-0.9188 -0.4315 0.4251 -0.9051 118.341 160.555)">
	<stop  offset="0" style="stop-color:#FFFFFF"/>
	<stop  offset="1" style="stop-color:#000000"/>
</linearGradient>
<path fill="url(#XMLID_120_)" d="M41.469,58.201c3.429-7.298,11.577-10.694,18.198-7.585c6.621,3.11,9.208,11.549,5.78,18.848
	c-3.429,7.299-11.575,10.695-18.196,7.586C40.63,73.938,38.042,65.5,41.469,58.201z"/>
<linearGradient id="XMLID_121_" gradientUnits="userSpaceOnUse" x1="31.6221" y1="117.4888" x2="68.79" y2="117.4888" gradientTransform="matrix(0.9991 0.0421 -0.0421 0.9991 -7.9524 3.1971)">
	<stop  offset="0" style="stop-color:#000000"/>
	<stop  offset="0.0478" style="stop-color:#0D0D0D"/>
	<stop  offset="0.5254" style="stop-color:#8E8E8E"/>
	<stop  offset="0.8517" style="stop-color:#DFDFDF"/>
	<stop  offset="1" style="stop-color:#FFFFFF"/>
</linearGradient>
<path fill="url(#XMLID_121_)" d="M55.833,123.476c-0.537,12.738-9.284,22.715-19.539,22.282
	c-10.254-0.432-18.132-11.109-17.596-23.846c0.537-12.736,9.285-22.713,19.54-22.281C48.491,100.063,56.369,110.739,55.833,123.476z
	"/>
<linearGradient id="XMLID_122_" gradientUnits="userSpaceOnUse" x1="173.9194" y1="221.1724" x2="200.1792" y2="221.1724" gradientTransform="matrix(-0.868 -0.4966 0.4966 -0.868 266.8122 485.6141)">
	<stop  offset="0" style="stop-color:#FFFFFF"/>
	<stop  offset="1" style="stop-color:#000000"/>
</linearGradient>
<path fill="url(#XMLID_122_)" d="M204.654,191.977c5.433-5.957,14.154-6.852,19.479-1.997c5.326,4.855,5.237,13.622-0.195,19.582
	c-5.434,5.958-14.156,6.854-19.481,1.997C199.132,206.703,199.22,197.937,204.654,191.977z"/>
<linearGradient id="XMLID_123_" gradientUnits="userSpaceOnUse" x1="364.3032" y1="307.897" x2="390.563" y2="307.897" gradientTransform="matrix(-0.9749 0.547 -0.5081 -0.6761 609.3351 29.3087)">
	<stop  offset="0" style="stop-color:#FFFFFF"/>
	<stop  offset="1" style="stop-color:#000000"/>
</linearGradient>
<path fill="url(#XMLID_123_)" d="M71.047,32.63c-2.285-6.281,2.067-13.633,9.722-16.418c7.655-2.786,15.713,0.05,18.001,6.332
	c2.285,6.283-2.067,13.634-9.723,16.419C81.392,41.749,73.333,38.913,71.047,32.63z"/>
<linearGradient id="XMLID_124_" gradientUnits="userSpaceOnUse" x1="66.0884" y1="120.0405" x2="94.4072" y2="120.0405">
	<stop  offset="0" style="stop-color:#000000"/>
	<stop  offset="0.0044" style="stop-color:#020202"/>
	<stop  offset="0.2254" style="stop-color:#4D4D4D"/>
	<stop  offset="0.4323" style="stop-color:#8D8D8D"/>
	<stop  offset="0.619" style="stop-color:#BEBEBE"/>
	<stop  offset="0.7817" style="stop-color:#E1E1E1"/>
	<stop  offset="0.9142" style="stop-color:#F7F7F7"/>
	<stop  offset="1" style="stop-color:#FFFFFF"/>
</linearGradient>
<ellipse fill="url(#XMLID_124_)" cx="80.248" cy="120.041" rx="14.159" ry="15.845"/>
<linearGradient id="XMLID_125_" gradientUnits="userSpaceOnUse" x1="262.439" y1="131.4209" x2="288.6987" y2="131.4209" gradientTransform="matrix(0.7958 -0.6055 0.6055 0.7958 -97.401 134.3728)">
	<stop  offset="0.0056" style="stop-color:#000000"/>
	<stop  offset="0.8989" style="stop-color:#A2A2A2"/>
	<stop  offset="1" style="stop-color:#FFFFFF"/>
</linearGradient>
<path fill="url(#XMLID_125_)" d="M213.352,66.646c3.365,7.328,0.787,15.707-5.76,18.717c-6.549,3.009-14.586-0.493-17.955-7.819
	c-3.366-7.328-0.788-15.707,5.761-18.717C201.947,55.818,209.984,59.319,213.352,66.646z"/>
<linearGradient id="XMLID_126_" gradientUnits="userSpaceOnUse" x1="244.4692" y1="194.2925" x2="270.729" y2="194.2925" gradientTransform="matrix(0.7958 -0.6055 0.6055 0.7958 -97.401 134.3728)">
	<stop  offset="0.0056" style="stop-color:#000000"/>
	<stop  offset="0.8989" style="stop-color:#A2A2A2"/>
	<stop  offset="1" style="stop-color:#FFFFFF"/>
</linearGradient>
<path fill="url(#XMLID_126_)" d="M237.167,127.549c3.365,7.328,0.787,15.707-5.76,18.717c-6.549,3.008-14.586-0.494-17.955-7.82
	c-3.366-7.328-0.788-15.707,5.761-18.717C225.761,116.721,233.798,120.222,237.167,127.549z"/>
<g>
	<g>
		<g enable-background="new    ">
			<g>
				<polygon points="256.263,80.057 246.769,83.293 247.566,81.709 257.059,78.472 				"/>
			</g>
			<g enable-background="new    ">
				<defs>
					<path id="XMLID_14_" enable-background="new    " d="M259.357,90.429l-9.494,3.237c-0.654-2.694-1.476-5.302-2.495-7.938
						l9.494-3.237C257.881,85.127,258.703,87.735,259.357,90.429z"/>
				</defs>
				<clipPath id="XMLID_127_">
					<use xlink:href="#XMLID_14_" />
				</clipPath>
				<g clip-path="url(#XMLID_127_)" enable-background="new    ">
					<path d="M259.357,90.429l-9.494,3.237c-0.654-2.694-1.476-5.302-2.495-7.938l9.494-3.237
						C257.881,85.127,258.703,87.735,259.357,90.429"/>
				</g>
			</g>
			<g>
				<polygon points="245.064,52.412 235.571,55.649 234,55.75 243.494,52.513 				"/>
			</g>
			<g enable-background="new    ">
				<defs>
					<path id="XMLID_16_" enable-background="new    " d="M241.668,50.673l-9.493,3.237c-2.563-3.45-5.323-6.792-8.218-9.948
						l9.493-3.237C236.346,43.881,239.106,47.222,241.668,50.673z"/>
				</defs>
				<clipPath id="XMLID_128_">
					<use xlink:href="#XMLID_16_" />
				</clipPath>
				<g clip-path="url(#XMLID_128_)" enable-background="new    ">
					<path d="M241.668,50.673l-9.493,3.237c-2.563-3.45-5.323-6.792-8.218-9.948l9.493-3.237
						C236.346,43.881,239.106,47.222,241.668,50.673"/>
				</g>
			</g>
			<g enable-background="new    ">
				<defs>
					<path id="XMLID_18_" enable-background="new    " d="M250.266,103.072l-9.493,3.237c9.166-7.789,9.631-11.26,9.09-12.643
						l9.494-3.237C259.897,91.813,259.432,95.284,250.266,103.072z"/>
				</defs>
				<clipPath id="XMLID_129_">
					<use xlink:href="#XMLID_18_" />
				</clipPath>
				<g clip-path="url(#XMLID_129_)" enable-background="new    ">
					<path d="M250.266,103.072l-9.493,3.237c9.166-7.789,9.631-11.26,9.09-12.643l9.494-3.237
						C259.897,91.813,259.432,95.284,250.266,103.072"/>
				</g>
			</g>
			<g enable-background="new    ">
				<defs>
					<path id="XMLID_20_" enable-background="new    " d="M262.771,134.866l-9.494,3.237c-2.689-7.84-6.032-17.599-12.681-30.554
						l9.494-3.237C256.739,117.267,260.081,127.025,262.771,134.866z"/>
				</defs>
				<clipPath id="XMLID_130_">
					<use xlink:href="#XMLID_20_" />
				</clipPath>
				<g clip-path="url(#XMLID_130_)" enable-background="new    ">
					<path d="M262.771,134.866l-9.494,3.237c-2.689-7.84-6.032-17.599-12.681-30.554l9.494-3.237
						C256.739,117.267,260.081,127.025,262.771,134.866"/>
				</g>
			</g>
			<g>
				<polygon points="249.7,103.547 240.207,106.784 240.773,106.309 250.266,103.072 				"/>
			</g>
			<g>
				<polygon points="250.09,104.311 240.596,107.548 240.207,106.784 249.7,103.547 				"/>
			</g>
			<g enable-background="new    ">
				<defs>
					<path id="XMLID_22_" enable-background="new    " d="M247.368,85.729c0.143-0.097,0.381-0.13,0.545-0.186
						c0.579-0.198,1.159-0.396,1.739-0.593c0.82-0.28,1.642-0.56,2.462-0.839c0.373-0.127,0.87-0.297,1.242-0.424
						c0.185-0.063,0.431-0.146,0.614-0.209c0.964-0.329,1.928-0.657,2.892-0.986c-1.856,2.2-5.847,5.251-12.115,9.265
						c-1.015,0.346-2.028,0.691-3.043,1.038c-1.781,0.607-3.562,1.214-5.342,1.821l-1.109,0.378
						C241.522,90.98,245.511,87.929,247.368,85.729z"/>
				</defs>
				<clipPath id="XMLID_131_">
					<use xlink:href="#XMLID_22_" />
				</clipPath>
				<g clip-path="url(#XMLID_131_)" enable-background="new    ">
					<path fill="#858585" d="M244.747,91.757l-9.494,3.237c6.27-4.013,10.259-7.065,12.115-9.265l9.494-3.237
						C255.005,84.691,251.015,87.743,244.747,91.757"/>
				</g>
			</g>
			<g enable-background="new    ">
				<defs>
					<path id="XMLID_24_" enable-background="new    " d="M244.5,89.554l-9.493,3.237c8.529-5.519,11.111-8.206,11.763-9.498
						l9.494-3.237C255.611,81.349,253.03,84.036,244.5,89.554z"/>
				</defs>
				<clipPath id="XMLID_132_">
					<use xlink:href="#XMLID_24_" />
				</clipPath>
				<g clip-path="url(#XMLID_132_)" enable-background="new    ">
					<path d="M244.5,89.554l-9.493,3.237c8.529-5.519,11.111-8.206,11.763-9.498l9.494-3.237
						C255.611,81.349,253.03,84.036,244.5,89.554"/>
				</g>
			</g>
			<g>
				<polygon fill="#878787" points="244.04,92.215 234.546,95.452 235.252,94.994 244.747,91.757 				"/>
			</g>
			<g>
				<polygon points="244.04,92.215 234.546,95.452 234.063,94.596 243.556,91.359 				"/>
			</g>
			<g enable-background="new    ">
				<defs>
					<path id="XMLID_26_" enable-background="new    " d="M243.494,52.513L234,55.75c-4.577,0.28-11.661,1.673-20.043,3.942
						l9.494-3.237C231.833,54.187,238.917,52.793,243.494,52.513z"/>
				</defs>
				<clipPath id="XMLID_133_">
					<use xlink:href="#XMLID_26_" />
				</clipPath>
				<g clip-path="url(#XMLID_133_)" enable-background="new    ">
					<path d="M243.494,52.513L234,55.75c-4.577,0.28-11.661,1.673-20.043,3.942l9.494-3.237
						C231.833,54.187,238.917,52.793,243.494,52.513"/>
				</g>
			</g>
			<g enable-background="new    ">
				<defs>
					<path id="XMLID_28_" enable-background="new    " d="M232.175,53.91c-4.916,0.481-11.77,1.918-19.992,4.197l9.493-3.237
						c8.223-2.279,15.077-3.716,19.992-4.197c-0.761,0.259-1.522,0.519-2.284,0.779c-0.613,0.209-1.227,0.418-1.84,0.627
						c-0.374,0.127-0.872,0.297-1.245,0.425c-0.186,0.063-0.434,0.148-0.62,0.211c-0.604,0.206-1.21,0.413-1.814,0.619
						c-0.174,0.06-0.406,0.139-0.581,0.198C232.952,53.645,232.519,53.835,232.175,53.91z"/>
				</defs>
				<clipPath id="XMLID_134_">
					<use xlink:href="#XMLID_28_" />
				</clipPath>
				<g clip-path="url(#XMLID_134_)" enable-background="new    ">
					<path fill="#858585" d="M241.668,50.673l-9.493,3.237c-4.916,0.481-11.77,1.918-19.992,4.197l9.493-3.237
						C229.899,52.591,236.753,51.154,241.668,50.673"/>
				</g>
			</g>
			<g enable-background="new    ">
				<defs>
					<path id="XMLID_30_" enable-background="new    " d="M243.556,91.359l-9.493,3.237c-6.532-11.522-14.437-23.934-22.255-34.957
						l9.494-3.237C229.12,67.426,237.024,79.836,243.556,91.359z"/>
				</defs>
				<clipPath id="XMLID_135_">
					<use xlink:href="#XMLID_30_" />
				</clipPath>
				<g clip-path="url(#XMLID_135_)" enable-background="new    ">
					<path d="M243.556,91.359l-9.493,3.237c-6.532-11.522-14.437-23.934-22.255-34.957l9.494-3.237
						C229.12,67.426,237.024,79.836,243.556,91.359"/>
				</g>
			</g>
			<g enable-background="new    ">
				<defs>
					<path id="XMLID_32_" enable-background="new    " d="M251.296,145.417l-9.493,3.237c4.636-3.538,8.49-7.082,11.474-10.552
						l9.494-3.237C259.787,138.335,255.932,141.879,251.296,145.417z"/>
				</defs>
				<clipPath id="XMLID_136_">
					<use xlink:href="#XMLID_32_" />
				</clipPath>
				<g clip-path="url(#XMLID_136_)" enable-background="new    ">
					<path d="M251.296,145.417l-9.493,3.237c4.636-3.538,8.49-7.082,11.474-10.552l9.494-3.237
						C259.787,138.335,255.932,141.879,251.296,145.417"/>
				</g>
			</g>
			<g>
				<polygon fill="#808080" points="221.676,54.87 212.183,58.107 210.97,58.448 220.463,55.21 				"/>
			</g>
			<g>
				<polygon points="221.302,56.403 211.808,59.64 210.97,58.448 220.463,55.21 				"/>
			</g>
			<g>
				<polygon points="250.527,148.464 241.033,151.701 240.625,150.432 250.119,147.195 				"/>
			</g>
			<g enable-background="new    ">
				<defs>
					<path id="XMLID_34_" enable-background="new    " d="M233.451,40.725l-9.493,3.237c-5.792,0.006-12.982,0.753-20.823,2.181
						l9.494-3.237C220.469,41.479,227.659,40.731,233.451,40.725z"/>
				</defs>
				<clipPath id="XMLID_137_">
					<use xlink:href="#XMLID_34_" />
				</clipPath>
				<g clip-path="url(#XMLID_137_)" enable-background="new    ">
					<path d="M233.451,40.725l-9.493,3.237c-5.792,0.006-12.982,0.753-20.823,2.181l9.494-3.237
						C220.469,41.479,227.659,40.731,233.451,40.725"/>
				</g>
			</g>
			<g>
				<polygon points="212.628,42.906 203.134,46.143 202.634,46.238 212.127,43.001 				"/>
			</g>
			<g>
				<polygon points="212.127,43.001 202.634,46.238 202.28,45.761 211.774,42.524 				"/>
			</g>
			<g enable-background="new    ">
				<defs>
					<path id="XMLID_36_" enable-background="new    " d="M226.338,118.646c4.865-1.655,4.865-1.655,9.494-3.237
						c7.668,12.965,13.108,23.526,15.464,30.009l-9.493,3.237C239.447,142.172,234.006,131.61,226.338,118.646z"/>
				</defs>
				<clipPath id="XMLID_138_">
					<use xlink:href="#XMLID_36_" />
				</clipPath>
				<g clip-path="url(#XMLID_138_)" enable-background="new    ">
					<path fill="#858585" d="M251.296,145.417l-9.493,3.237c-2.356-6.482-7.797-17.044-15.465-30.009l9.494-3.237
						C243.5,128.374,248.941,138.935,251.296,145.417"/>
				</g>
			</g>
			<g>
				<polygon fill="#848484" points="235.833,115.409 226.338,118.646 225.825,117.786 235.319,114.549 				"/>
			</g>
			<g>
				<polygon points="234.61,115.051 225.117,118.288 225.825,117.786 235.319,114.549 				"/>
			</g>
			<g enable-background="new    ">
				<defs>
					<path id="XMLID_38_" enable-background="new    " d="M250.119,147.195l-9.493,3.237c-1.979-6.03-7.359-16.643-15.186-29.937
						l9.494-3.237C242.76,130.552,248.14,141.165,250.119,147.195z"/>
				</defs>
				<clipPath id="XMLID_139_">
					<use xlink:href="#XMLID_38_" />
				</clipPath>
				<g clip-path="url(#XMLID_139_)" enable-background="new    ">
					<path d="M250.119,147.195l-9.493,3.237c-1.979-6.03-7.359-16.643-15.186-29.937l9.494-3.237
						C242.76,130.552,248.14,141.165,250.119,147.195"/>
				</g>
			</g>
			<g>
				<polygon fill="#848484" points="228.336,101.92 218.843,105.157 218.306,104.25 227.799,101.013 				"/>
			</g>
			<g>
				<polygon fill="#868686" points="227.567,102.396 218.074,105.633 218.843,105.157 228.336,101.92 				"/>
			</g>
			<g enable-background="new    ">
				<defs>
					<path id="XMLID_40_" enable-background="new    " d="M227.799,101.013l-9.493,3.237c-7.574-12.661-16.243-26.642-24.426-39.344
						l9.493-3.237C211.556,74.372,220.226,88.353,227.799,101.013z"/>
				</defs>
				<clipPath id="XMLID_140_">
					<use xlink:href="#XMLID_40_" />
				</clipPath>
				<g clip-path="url(#XMLID_140_)" enable-background="new    ">
					<path fill="#858585" d="M227.799,101.013l-9.493,3.237c-7.574-12.661-16.243-26.642-24.426-39.344l9.493-3.237
						C211.556,74.372,220.226,88.353,227.799,101.013"/>
				</g>
			</g>
			<g>
				<polygon fill="#838383" points="203.374,61.669 193.88,64.906 193.465,64.263 202.958,61.026 				"/>
			</g>
			<g>
				<polygon points="202.347,61.257 192.854,64.495 193.465,64.263 202.958,61.026 				"/>
			</g>
			<g enable-background="new    ">
				<defs>
					<path id="XMLID_42_" enable-background="new    " d="M225.861,101.109l-9.493,3.237c-7.308-12.193-15.58-25.52-23.431-37.735
						l9.493-3.237C210.281,75.59,218.554,88.917,225.861,101.109z"/>
				</defs>
				<clipPath id="XMLID_141_">
					<use xlink:href="#XMLID_42_" />
				</clipPath>
				<g clip-path="url(#XMLID_141_)" enable-background="new    ">
					<path d="M225.861,101.109l-9.493,3.237c-7.308-12.193-15.58-25.52-23.431-37.735l9.493-3.237
						C210.281,75.59,218.554,88.917,225.861,101.109"/>
				</g>
			</g>
			<g enable-background="new    ">
				<defs>
					<path id="XMLID_44_" enable-background="new    " d="M211.774,42.524l-9.494,3.237c-10.775-14.542-19.445-22.995-24.127-23.587
						c-0.359-0.045-0.695-0.044-1.007,0.003l9.493-3.237c0.312-0.048,0.648-0.049,1.008-0.003
						C192.329,19.529,200.998,27.982,211.774,42.524z"/>
				</defs>
				<clipPath id="XMLID_142_">
					<use xlink:href="#XMLID_44_" />
				</clipPath>
				<g clip-path="url(#XMLID_142_)" enable-background="new    ">
					<path d="M211.774,42.524l-9.494,3.237c-10.775-14.542-19.445-22.995-24.127-23.587c-0.359-0.045-0.695-0.044-1.007,0.003
						l9.493-3.237c0.312-0.048,0.648-0.049,1.008-0.003C192.329,19.529,200.998,27.982,211.774,42.524"/>
				</g>
			</g>
			<g>
				<polygon fill="#838383" points="194.624,47.246 185.129,50.483 184.399,49.349 193.893,46.112 				"/>
			</g>
			<g>
				<polygon points="194.624,47.246 185.129,50.482 184.025,50.828 193.519,47.591 				"/>
			</g>
			<g enable-background="new    ">
				<defs>
					<path id="XMLID_46_" enable-background="new    " d="M179.218,52.396c3.165-1.079,6.329-2.158,9.494-3.237
						c1.599-0.545,3.202-1.069,4.807-1.568l-9.494,3.237C182.421,51.328,180.818,51.851,179.218,52.396z"/>
				</defs>
				<clipPath id="XMLID_143_">
					<use xlink:href="#XMLID_46_" />
				</clipPath>
				<g clip-path="url(#XMLID_143_)" enable-background="new    ">
					<path d="M193.519,47.591l-9.494,3.237c-1.604,0.5-3.207,1.023-4.807,1.568l9.494-3.237
						C190.311,48.614,191.915,48.09,193.519,47.591"/>
				</g>
			</g>
			<g enable-background="new    ">
				<defs>
					<path id="XMLID_48_" enable-background="new    " d="M186.639,18.94l-9.493,3.237c-3.626-0.194-8.061-0.403-12.836-0.375
						l9.493-3.237C178.579,18.537,183.014,18.746,186.639,18.94z"/>
				</defs>
				<clipPath id="XMLID_144_">
					<use xlink:href="#XMLID_48_" />
				</clipPath>
				<g clip-path="url(#XMLID_144_)" enable-background="new    ">
					<path d="M186.639,18.94l-9.493,3.237c-3.626-0.194-8.061-0.403-12.836-0.375l9.493-3.237
						C178.579,18.537,183.014,18.746,186.639,18.94"/>
				</g>
			</g>
			<g enable-background="new    ">
				<defs>
					<path id="XMLID_50_" enable-background="new    " d="M164.31,21.801c3.165-1.078,6.329-2.157,9.493-3.237
						c4.039,3.838,10.771,13.07,20.09,27.548c-2.795,0.953-5.591,1.904-8.385,2.859l-1.109,0.378
						C175.081,34.871,168.349,25.639,164.31,21.801z"/>
				</defs>
				<clipPath id="XMLID_145_">
					<use xlink:href="#XMLID_50_" />
				</clipPath>
				<g clip-path="url(#XMLID_145_)" enable-background="new    ">
					<path fill="#858585" d="M193.893,46.112l-9.494,3.237c-9.318-14.478-16.05-23.71-20.089-27.548l9.493-3.237
						C177.842,22.402,184.575,31.634,193.893,46.112"/>
				</g>
			</g>
			<g enable-background="new    ">
				<defs>
					<path id="XMLID_52_" enable-background="new    " d="M191.802,46.035l-9.494,3.237c-14.417-22.299-19.329-26.805-20.98-27.491
						l9.494-3.237C172.473,19.23,177.385,23.736,191.802,46.035z"/>
				</defs>
				<clipPath id="XMLID_146_">
					<use xlink:href="#XMLID_52_" />
				</clipPath>
				<g clip-path="url(#XMLID_146_)" enable-background="new    ">
					<path d="M191.802,46.035l-9.494,3.237c-14.417-22.299-19.329-26.805-20.98-27.491l9.494-3.237
						C172.473,19.23,177.385,23.736,191.802,46.035"/>
				</g>
			</g>
			<g>
				<polygon points="170.822,18.544 161.328,21.781 161.45,19.873 170.943,16.635 				"/>
			</g>
			<g enable-background="new    ">
				<defs>
					<path id="XMLID_54_" enable-background="new    " d="M200.196,137.161l-9.494,3.237c12.124-7.008,24.35-14.859,34.415-22.11
						l9.493-3.237C224.545,122.302,212.32,130.153,200.196,137.161z"/>
				</defs>
				<clipPath id="XMLID_147_">
					<use xlink:href="#XMLID_54_" />
				</clipPath>
				<g clip-path="url(#XMLID_147_)" enable-background="new    ">
					<path d="M200.196,137.161l-9.494,3.237c12.124-7.008,24.35-14.859,34.415-22.11l9.493-3.237
						C224.545,122.302,212.32,130.153,200.196,137.161"/>
				</g>
			</g>
			<g enable-background="new    ">
				<defs>
					<path id="XMLID_56_" enable-background="new    " d="M220.969,162.995l-9.494,3.236c-5.74-3.616-15.283-16.341-20.976-24.376
						l9.494-3.237C205.686,146.653,215.229,159.377,220.969,162.995z"/>
				</defs>
				<clipPath id="XMLID_148_">
					<use xlink:href="#XMLID_56_" />
				</clipPath>
				<g clip-path="url(#XMLID_148_)" enable-background="new    ">
					<path d="M220.969,162.995l-9.494,3.236c-5.74-3.616-15.283-16.341-20.976-24.376l9.494-3.237
						C205.686,146.653,215.229,159.377,220.969,162.995"/>
				</g>
			</g>
			<g>
				<polygon points="199.994,138.618 190.5,141.854 189.831,140.905 199.324,137.668 				"/>
			</g>
			<g>
				<polygon points="199.324,137.668 189.831,140.905 190.702,140.398 200.196,137.161 				"/>
			</g>
			<g enable-background="new    ">
				<defs>
					<path id="XMLID_58_" enable-background="new    " d="M207.589,168.268l-9.494,3.237c5.259-1.91,9.44-3.553,13.38-5.274
						l9.494-3.236C217.029,164.715,212.848,166.358,207.589,168.268z"/>
				</defs>
				<clipPath id="XMLID_149_">
					<use xlink:href="#XMLID_58_" />
				</clipPath>
				<g clip-path="url(#XMLID_149_)" enable-background="new    ">
					<path d="M207.589,168.268l-9.494,3.237c5.259-1.91,9.44-3.553,13.38-5.274l9.494-3.236
						C217.029,164.715,212.848,166.358,207.589,168.268"/>
				</g>
			</g>
			<g enable-background="new    ">
				<defs>
					<path id="XMLID_60_" enable-background="new    " d="M195.154,119.257c7.958-4.596,15.81-9.262,22.92-13.625l9.493-3.237
						c-7.381,4.528-15.562,9.384-23.829,14.149c-1.173,0.441-2.345,0.882-3.518,1.323c1.173-0.441,2.345-0.882,3.518-1.323
						c-4.061,2.34-8.142,4.658-12.159,6.905l-9.494,3.237C186.403,124.273,190.794,121.776,195.154,119.257
						c0.788-0.206,1.575-0.412,2.362-0.617C196.729,118.846,195.942,119.052,195.154,119.257z M200.334,117.793l-0.187,0.062
						l-0.192,0.063l-0.198,0.065l-0.203,0.067l-0.207,0.068l-0.21,0.069l-0.211,0.07l-0.213,0.07l-0.213,0.07l-0.212,0.07
						l-0.209,0.069l-0.207,0.068l-0.203,0.067l-0.198,0.065l-0.193,0.063l-0.186,0.062l0.186-0.062l0.193-0.063l0.198-0.065
						l0.203-0.067l0.207-0.068l0.209-0.069l0.212-0.07l0.213-0.07l0.213-0.07l0.211-0.07l0.21-0.069l0.207-0.068l0.203-0.067
						l0.198-0.065l0.192-0.063L200.334,117.793"/>
				</defs>
				<clipPath id="XMLID_150_">
					<use xlink:href="#XMLID_60_" />
				</clipPath>
				<g clip-path="url(#XMLID_150_)" enable-background="new    ">
					<path fill="#858585" d="M191.579,123.451l-9.494,3.237c12.2-6.822,24.983-14.302,35.989-21.055l9.493-3.237
						C216.562,109.148,203.779,116.628,191.579,123.451"/>
				</g>
			</g>
			<g enable-background="new    ">
				<defs>
					<path id="XMLID_62_" enable-background="new    " d="M191.359,121.288l-9.493,3.237c11.704-6.553,23.892-13.682,34.502-20.179
						l9.493-3.237C215.25,107.606,203.064,114.735,191.359,121.288z"/>
				</defs>
				<clipPath id="XMLID_151_">
					<use xlink:href="#XMLID_62_" />
				</clipPath>
				<g clip-path="url(#XMLID_151_)" enable-background="new    ">
					<path d="M191.359,121.288l-9.493,3.237c11.704-6.553,23.892-13.682,34.502-20.179l9.493-3.237
						C215.25,107.606,203.064,114.735,191.359,121.288"/>
				</g>
			</g>
			<g enable-background="new    ">
				<defs>
					<path id="XMLID_64_" enable-background="new    " d="M206.856,168.615c-3.165,1.079-6.329,2.158-9.494,3.237
						c0.258-0.088,0.502-0.203,0.733-0.347l9.494-3.237C207.358,168.412,207.113,168.527,206.856,168.615z"/>
				</defs>
				<clipPath id="XMLID_152_">
					<use xlink:href="#XMLID_64_" />
				</clipPath>
				<g clip-path="url(#XMLID_152_)" enable-background="new    ">
					<path d="M206.856,168.615l-9.494,3.237c0.258-0.088,0.502-0.203,0.733-0.347l9.494-3.237
						C207.358,168.412,207.113,168.527,206.856,168.615"/>
				</g>
			</g>
			<g>
				<polygon fill="#868686" points="190.912,123.825 181.417,127.062 182.084,126.688 191.579,123.451 				"/>
			</g>
			<g>
				<polygon points="190.912,123.825 181.417,127.062 180.949,126.305 190.443,123.068 				"/>
			</g>
			<g enable-background="new    ">
				<defs>
					<path id="XMLID_66_" enable-background="new    " d="M166.153,77.97l-9.493,3.237c10.974-6.015,23.828-11.951,36.194-16.713
						l9.493-3.237C189.981,66.019,177.127,71.956,166.153,77.97z"/>
				</defs>
				<clipPath id="XMLID_153_">
					<use xlink:href="#XMLID_66_" />
				</clipPath>
				<g clip-path="url(#XMLID_153_)" enable-background="new    ">
					<path d="M166.153,77.97l-9.493,3.237c10.974-6.015,23.828-11.951,36.194-16.713l9.493-3.237
						C189.981,66.019,177.127,71.956,166.153,77.97"/>
				</g>
			</g>
			<g enable-background="new    ">
				<defs>
					<path id="XMLID_68_" enable-background="new    " d="M190.443,123.068l-9.494,3.237c-8.206-13.376-16.946-28.919-24.591-43.768
						l9.494-3.237C173.497,94.149,182.236,109.692,190.443,123.068z"/>
				</defs>
				<clipPath id="XMLID_154_">
					<use xlink:href="#XMLID_68_" />
				</clipPath>
				<g clip-path="url(#XMLID_154_)" enable-background="new    ">
					<path d="M190.443,123.068l-9.494,3.237c-8.206-13.376-16.946-28.919-24.591-43.768l9.494-3.237
						C173.497,94.149,182.236,109.692,190.443,123.068"/>
				</g>
			</g>
			<g>
				<polygon points="165.852,79.3 156.358,82.537 155.89,81.631 165.384,78.394 				"/>
			</g>
			<g>
				<polygon points="165.384,78.394 155.89,81.631 156.66,81.208 166.153,77.97 				"/>
			</g>
			<g enable-background="new    ">
				<defs>
					<path id="XMLID_70_" enable-background="new    " d="M178.591,50.498c3.164-1.079,6.328-2.158,9.493-3.237
						c-10.529,3.59-20.851,8.111-29.574,12.965l-9.494,3.237C157.741,58.609,168.062,54.087,178.591,50.498z"/>
				</defs>
				<clipPath id="XMLID_155_">
					<use xlink:href="#XMLID_70_" />
				</clipPath>
				<g clip-path="url(#XMLID_155_)" enable-background="new    ">
					<path d="M158.51,60.226l-9.494,3.237c8.725-4.854,19.046-9.375,29.575-12.965l9.493-3.237
						C177.556,50.851,167.234,55.372,158.51,60.226"/>
				</g>
			</g>
			<g enable-background="new    ">
				<defs>
					<path id="XMLID_72_" enable-background="new    " d="M179.217,52.397l9.493-3.237c-10.75,3.666-21.276,8.31-30.078,13.281
						l-9.494,3.237C157.941,60.707,168.466,56.062,179.217,52.397z"/>
				</defs>
				<clipPath id="XMLID_156_">
					<use xlink:href="#XMLID_72_" />
				</clipPath>
				<g clip-path="url(#XMLID_156_)" enable-background="new    ">
					<path fill="#858585" d="M158.632,62.44l-9.494,3.237c8.803-4.97,19.328-9.615,30.079-13.28l9.493-3.237
						C177.96,52.825,167.434,57.47,158.632,62.44"/>
				</g>
			</g>
			<g>
				<polygon fill="#868686" points="157.863,62.881 148.37,66.118 149.138,65.677 158.632,62.44 				"/>
			</g>
			<g>
				<polygon points="157.863,62.881 148.37,66.118 147.933,65.171 157.427,61.935 				"/>
			</g>
			<g enable-background="new    ">
				<defs>
					<path id="XMLID_74_" enable-background="new    " d="M157.427,61.935l-9.494,3.237c-7.411-16.071-12.901-29.779-15.211-37.944
						l9.494-3.237C144.526,32.155,150.016,45.864,157.427,61.935z"/>
				</defs>
				<clipPath id="XMLID_157_">
					<use xlink:href="#XMLID_74_" />
				</clipPath>
				<g clip-path="url(#XMLID_157_)" enable-background="new    ">
					<path d="M157.427,61.935l-9.494,3.237c-7.411-16.071-12.901-29.779-15.211-37.944l9.494-3.237
						C144.526,32.155,150.016,45.864,157.427,61.935"/>
				</g>
			</g>
			<g>
				<polygon fill="#838383" points="182.282,147.901 172.788,151.138 172.333,150.516 181.828,147.279 				"/>
			</g>
			<g>
				<polygon points="181.223,147.582 171.729,150.818 172.333,150.516 181.827,147.279 				"/>
			</g>
			<g>
				<polygon fill="#858585" points="150.451,89.238 140.957,92.475 140.484,91.391 149.978,88.154 				"/>
			</g>
			<g>
				<polygon points="149.16,88.766 139.666,92.002 140.484,91.391 149.978,88.154 				"/>
			</g>
			<g enable-background="new    ">
				<defs>
					<path id="XMLID_76_" enable-background="new    " d="M140.957,92.475c3.166-1.076,6.33-2.155,9.494-3.237
						c6.605,15.035,14.519,30.448,22.277,43.387l-9.494,3.237C155.475,122.922,147.562,107.51,140.957,92.475z"/>
				</defs>
				<clipPath id="XMLID_158_">
					<use xlink:href="#XMLID_76_" />
				</clipPath>
				<g clip-path="url(#XMLID_158_)" enable-background="new    ">
					<path fill="#858585" d="M172.728,132.625l-9.494,3.237c-7.759-12.94-15.672-28.353-22.277-43.388l9.494-3.237
						C157.056,104.273,164.969,119.686,172.728,132.625"/>
				</g>
			</g>
			<g enable-background="new    ">
				<defs>
					<path id="XMLID_78_" enable-background="new    " d="M170.759,132.668l-9.494,3.237c-7.441-12.511-14.985-27.201-21.368-41.616
						l9.494-3.237C155.773,105.468,163.317,120.157,170.759,132.668z"/>
				</defs>
				<clipPath id="XMLID_159_">
					<use xlink:href="#XMLID_78_" />
				</clipPath>
				<g clip-path="url(#XMLID_159_)" enable-background="new    ">
					<path d="M170.759,132.668l-9.494,3.237c-7.441-12.511-14.985-27.201-21.368-41.616l9.494-3.237
						C155.773,105.468,163.317,120.157,170.759,132.668"/>
				</g>
			</g>
			<g enable-background="new    ">
				<defs>
					<path id="XMLID_80_" enable-background="new    " d="M195.333,172.018c-5.042-0.638-13.134-8.062-22.545-20.88l9.494-3.237
						c9.411,12.819,17.503,20.242,22.544,20.88c0.015,0.002,0.029,0.004,0.043,0.006c-0.17,0.058-0.34,0.116-0.511,0.174
						c0.171-0.058,0.341-0.116,0.511-0.174c0.719,0.086,1.376,0.032,2.011-0.185l-9.494,3.237c-0.634,0.217-1.291,0.27-2.01,0.185
						c0.175-0.06,0.35-0.119,0.523-0.179c-0.174,0.06-0.349,0.119-0.523,0.179C195.362,172.022,195.347,172.02,195.333,172.018z
						 M204.354,168.962l-0.485,0.165l-0.503,0.172l-0.518,0.176l-0.53,0.182l-0.54,0.184l-0.547,0.187l-0.553,0.188l-0.555,0.189
						l-0.555,0.188l-0.552,0.188l-0.548,0.187l-0.54,0.185l-0.529,0.181l-0.518,0.177l-0.503,0.171l-0.485,0.165l0.485-0.165
						l0.503-0.171l0.518-0.177l0.529-0.181l0.54-0.185l0.548-0.187l0.552-0.188l0.555-0.188l0.555-0.189l0.553-0.188l0.547-0.187
						l0.54-0.184l0.53-0.182l0.518-0.176l0.503-0.172L204.354,168.962"/>
				</defs>
				<clipPath id="XMLID_160_">
					<use xlink:href="#XMLID_80_" />
				</clipPath>
				<g clip-path="url(#XMLID_160_)" enable-background="new    ">
					<path fill="#858585" d="M206.879,168.602l-9.494,3.237c-0.646,0.221-1.317,0.271-2.053,0.179
						c-5.042-0.638-13.134-8.062-22.545-20.88l9.494-3.237c9.411,12.819,17.503,20.242,22.544,20.88
						C205.561,168.875,206.232,168.823,206.879,168.602"/>
				</g>
			</g>
			<g enable-background="new    ">
				<defs>
					<path id="XMLID_82_" enable-background="new    " d="M164.267,154.95c-0.285,0.097-0.665,0.227-0.949,0.324
						c-1.266,0.432-2.532,0.863-3.798,1.295c-1.582,0.54-3.164,1.079-4.747,1.619c4.879-1.664,10.651-4.167,16.956-7.369
						l9.494-3.237C174.917,150.784,169.145,153.287,164.267,154.95z"/>
				</defs>
				<clipPath id="XMLID_161_">
					<use xlink:href="#XMLID_82_" />
				</clipPath>
				<g clip-path="url(#XMLID_161_)" enable-background="new    ">
					<path d="M164.267,154.95l-9.494,3.237c4.879-1.664,10.651-4.167,16.956-7.369l9.494-3.237
						C174.917,150.784,169.145,153.287,164.267,154.95"/>
				</g>
			</g>
			<g enable-background="new    ">
				<defs>
					<path id="XMLID_84_" enable-background="new    " d="M162.962,137.257c0.322-0.14,0.775-0.264,1.108-0.377
						c0.353-0.121,0.822-0.281,1.175-0.401c0.182-0.062,0.424-0.145,0.605-0.207c0.619-0.211,1.238-0.422,1.856-0.633
						c1.02-0.348,2.039-0.695,3.059-1.042c0.563-0.192,1.127-0.385,1.689-0.577c-8.092,4.329-14.512,7.304-19.131,8.879
						l-9.494,3.237C148.451,144.562,154.871,141.586,162.962,137.257z"/>
				</defs>
				<clipPath id="XMLID_162_">
					<use xlink:href="#XMLID_84_" />
				</clipPath>
				<g clip-path="url(#XMLID_162_)" enable-background="new    ">
					<path fill="#858585" d="M153.325,142.9l-9.493,3.237c4.619-1.575,11.039-4.551,19.131-8.879l9.493-3.237
						C164.365,138.349,157.945,141.325,153.325,142.9"/>
				</g>
			</g>
			<g enable-background="new    ">
				<defs>
					<path id="XMLID_86_" enable-background="new    " d="M137.004,100.232l-9.494,3.237c2.381-3.746,7.729-8.178,12.155-11.466
						l9.494-3.237C144.733,92.054,139.385,96.486,137.004,100.232z"/>
				</defs>
				<clipPath id="XMLID_163_">
					<use xlink:href="#XMLID_86_" />
				</clipPath>
				<g clip-path="url(#XMLID_163_)" enable-background="new    ">
					<path d="M137.004,100.232l-9.494,3.237c2.381-3.746,7.729-8.178,12.155-11.466l9.494-3.237
						C144.733,92.054,139.385,96.486,137.004,100.232"/>
				</g>
			</g>
			<g>
				<path fill="#F9F9F9" d="M250.09,104.311c6.648,12.956,9.99,22.714,12.681,30.555c-2.984,3.469-6.839,7.014-11.475,10.552
					c-2.355-6.482-7.796-17.044-15.464-30.009l-0.514-0.859l-0.709,0.501c-10.064,7.251-22.29,15.102-34.414,22.11l-0.872,0.507
					l0.67,0.95c5.692,8.035,15.235,20.76,20.976,24.377c-3.94,1.721-8.121,3.363-13.239,5.212c-0.916,0.543-1.843,0.709-2.904,0.574
					c-5.041-0.638-13.133-8.061-22.544-20.88l-0.454-0.622l-0.604,0.303c-7.96,4.042-15.07,6.972-20.605,8.502
					c-3.02-3.899-5.885-8.188-8.541-12.778c4.682-1.436,11.531-4.551,20.379-9.285l0.84-0.45l-0.567-0.946
					c-7.759-12.939-15.672-28.352-22.277-43.387l-0.473-1.083l-0.818,0.611c-4.427,3.288-9.774,7.72-12.155,11.466
					c-1.064-3.719-1.938-7.412-2.595-11.003c-1.121-4.034,2.059-9.659,8.93-15.946l0.465-0.427l-0.259-0.677
					c-6.73-17.833-10.203-31.197-12.727-41.03c2.993-2.801,6.824-5.205,11.397-7.159c2.31,8.165,7.8,21.874,15.211,37.944
					l0.436,0.946l0.77-0.44c10.111-5.71,22.498-10.99,34.887-14.85l1.104-0.345l-0.73-1.134
					c-9.318-14.478-16.051-23.71-20.09-27.548c4.775-0.027,9.211,0.182,12.68,0.383c0.468-0.055,0.805-0.056,1.164-0.01
					c4.682,0.592,13.351,9.045,24.127,23.587l0.354,0.477l0.501-0.095c7.841-1.427,15.03-2.175,20.823-2.181
					c2.895,3.156,5.654,6.497,8.217,9.948c-4.915,0.481-11.77,1.918-19.992,4.197l-1.213,0.34l0.839,1.192
					c7.817,11.023,15.722,23.434,22.254,34.957l0.483,0.856l0.707-0.458c6.269-4.014,10.259-7.065,12.115-9.265
					c1.02,2.636,1.841,5.244,2.442,7.781c0.593,1.54,0.128,5.011-9.038,12.799l-0.566,0.476L250.09,104.311z M227.567,102.396
					l0.77-0.476l-0.537-0.907c-7.573-12.66-16.243-26.641-24.426-39.344l-0.415-0.644l-0.611,0.231
					c-12.366,4.762-25.22,10.698-36.194,16.713l-0.769,0.424l0.468,0.906c7.645,14.849,16.384,30.392,24.59,43.768l0.47,0.756
					l0.667-0.374C203.779,116.628,216.562,109.148,227.567,102.396"/>
			</g>
			<g>
				<path d="M227.8,101.013l0.536,0.906l-0.77,0.477c-11.005,6.752-23.788,14.232-35.988,21.055l-0.667,0.374l-0.469-0.756
					c-8.207-13.376-16.946-28.919-24.591-43.768l-0.468-0.906l0.769-0.424c10.975-6.015,23.828-11.951,36.194-16.713l0.611-0.231
					l0.415,0.644C211.556,74.372,220.226,88.353,227.8,101.013z M191.359,121.288c11.705-6.553,23.892-13.682,34.502-20.179
					c-7.307-12.193-15.58-25.52-23.431-37.735c-11.833,4.582-24.074,10.23-34.639,15.974
					C175.162,93.584,183.488,108.409,191.359,121.288"/>
			</g>
			<g>
				<polygon points="142.376,21.756 132.882,24.994 133.784,24.631 143.278,21.394 				"/>
			</g>
			<g enable-background="new    ">
				<defs>
					<path id="XMLID_88_" enable-background="new    " d="M207.536,170.492c-3.165,1.079-6.329,2.157-9.494,3.236
						c-0.794,0.271-1.67,0.344-2.625,0.223c-5.589-0.708-13.83-8.041-23.452-21.017l9.494-3.237
						c9.621,12.976,17.862,20.31,23.452,21.017C205.865,170.834,206.742,170.762,207.536,170.492z"/>
				</defs>
				<clipPath id="XMLID_164_">
					<use xlink:href="#XMLID_88_" />
				</clipPath>
				<g clip-path="url(#XMLID_164_)" enable-background="new    ">
					<path d="M207.536,170.492l-9.494,3.236c-0.793,0.271-1.67,0.344-2.625,0.223c-5.589-0.708-13.83-8.041-23.452-21.017
						l9.494-3.237c9.621,12.976,17.862,20.31,23.452,21.017C205.865,170.834,206.742,170.762,207.536,170.492"/>
				</g>
			</g>
			<g>
				<polygon fill="#848484" points="173.295,133.571 163.802,136.808 163.234,135.862 172.728,132.625 				"/>
			</g>
			<g>
				<polygon fill="#868686" points="172.456,134.021 162.962,137.257 163.802,136.808 173.295,133.571 				"/>
			</g>
			<g enable-background="new    ">
				<defs>
					<path id="XMLID_90_" enable-background="new    " d="M132.722,27.227c0.161-0.062,0.381-0.13,0.545-0.186
						c0.986-0.336,1.973-0.672,2.959-1.009c1.997-0.681,3.993-1.361,5.99-2.042c-4.573,1.954-8.404,4.358-11.397,7.159l-9.494,3.237
						C124.318,31.586,128.15,29.181,132.722,27.227z"/>
				</defs>
				<clipPath id="XMLID_165_">
					<use xlink:href="#XMLID_90_" />
				</clipPath>
				<g clip-path="url(#XMLID_165_)" enable-background="new    ">
					<path fill="#858585" d="M130.819,31.149l-9.494,3.237c2.993-2.8,6.825-5.205,11.397-7.159l9.494-3.237
						C137.643,25.944,133.812,28.349,130.819,31.149"/>
				</g>
			</g>
			<g enable-background="new    ">
				<defs>
					<path id="XMLID_92_" enable-background="new    " d="M129.242,29.96l-9.494,3.237c3.366-3.281,7.789-6.039,13.134-8.204
						l9.494-3.237C137.031,23.921,132.608,26.68,129.242,29.96z"/>
				</defs>
				<clipPath id="XMLID_166_">
					<use xlink:href="#XMLID_92_" />
				</clipPath>
				<g clip-path="url(#XMLID_166_)" enable-background="new    ">
					<path d="M129.242,29.96l-9.494,3.237c3.366-3.281,7.789-6.039,13.134-8.204l9.494-3.237
						C137.031,23.921,132.608,26.68,129.242,29.96"/>
				</g>
			</g>
			<g>
				<polygon points="128.855,30.334 119.362,33.571 119.748,33.197 129.242,29.96 				"/>
			</g>
			<g>
				<polygon points="129.005,30.918 119.512,34.155 119.362,33.571 128.855,30.334 				"/>
			</g>
			<g enable-background="new    ">
				<defs>
					<path id="XMLID_94_" enable-background="new    " d="M143.545,72.179l-9.493,3.237c-6.731-17.834-10.203-31.197-12.727-41.03
						l9.494-3.237C133.342,40.982,136.815,54.346,143.545,72.179z"/>
				</defs>
				<clipPath id="XMLID_167_">
					<use xlink:href="#XMLID_94_" />
				</clipPath>
				<g clip-path="url(#XMLID_167_)" enable-background="new    ">
					<path fill="#858585" d="M143.545,72.179l-9.493,3.237c-6.731-17.834-10.203-31.197-12.727-41.03l9.494-3.237
						C133.342,40.982,136.815,54.346,143.545,72.179"/>
				</g>
			</g>
			<g enable-background="new    ">
				<defs>
					<path id="XMLID_96_" enable-background="new    " d="M141.71,72.129l-9.493,3.237c-6.749-17.983-10.185-31.391-12.706-41.211
						l9.494-3.237C131.526,40.738,134.962,54.146,141.71,72.129z"/>
				</defs>
				<clipPath id="XMLID_168_">
					<use xlink:href="#XMLID_96_" />
				</clipPath>
				<g clip-path="url(#XMLID_168_)" enable-background="new    ">
					<path d="M141.71,72.129l-9.493,3.237c-6.749-17.983-10.185-31.391-12.706-41.211l9.494-3.237
						C131.526,40.738,134.962,54.146,141.71,72.129"/>
				</g>
			</g>
			<g enable-background="new    ">
				<defs>
					<path id="XMLID_98_" enable-background="new    " d="M151.125,159.321c3.164-1.079,6.329-2.158,9.493-3.237
						c1.15-0.318,2.369-0.697,3.649-1.133l-9.493,3.237C153.494,158.624,152.275,159.002,151.125,159.321z"/>
				</defs>
				<clipPath id="XMLID_169_">
					<use xlink:href="#XMLID_98_" />
				</clipPath>
				<g clip-path="url(#XMLID_169_)" enable-background="new    ">
					<path fill="#858585" d="M164.267,154.951l-9.494,3.237c-1.28,0.437-2.498,0.815-3.648,1.133l9.493-3.237
						C161.768,155.766,162.987,155.387,164.267,154.951"/>
				</g>
			</g>
			<g enable-background="new    ">
				<defs>
					<path id="XMLID_100_" enable-background="new    " d="M164.907,156.847c-3.165,1.079-6.329,2.158-9.494,3.237
						c-1.503,0.512-2.923,0.947-4.25,1.299l9.494-3.237C161.984,157.793,163.404,157.359,164.907,156.847z"/>
				</defs>
				<clipPath id="XMLID_170_">
					<use xlink:href="#XMLID_100_" />
				</clipPath>
				<g clip-path="url(#XMLID_170_)" enable-background="new    ">
					<path d="M164.907,156.847l-9.494,3.237c-1.503,0.512-2.923,0.947-4.25,1.299l9.494-3.237
						C161.984,157.793,163.404,157.359,164.907,156.847"/>
				</g>
			</g>
			<g>
				<polygon points="160.657,158.145 151.163,161.382 150.646,161.52 160.14,158.283 				"/>
			</g>
			<g>
				<polygon points="160.14,158.283 150.646,161.52 150.268,161.039 159.762,157.802 				"/>
			</g>
			<g enable-background="new    ">
				<defs>
					<path id="XMLID_102_" enable-background="new    " d="M152.596,141.037c-0.475,0.162-0.949,0.323-1.424,0.485
						c-1.266,0.432-2.532,0.863-3.798,1.295c-0.285,0.097-0.665,0.227-0.949,0.324c-1.107,0.377-2.215,0.755-3.323,1.133
						c4.38-1.494,10.579-4.348,18.163-8.368l9.494-3.237C163.175,136.688,156.976,139.543,152.596,141.037z"/>
				</defs>
				<clipPath id="XMLID_171_">
					<use xlink:href="#XMLID_102_" />
				</clipPath>
				<g clip-path="url(#XMLID_171_)" enable-background="new    ">
					<path d="M152.596,141.037l-9.494,3.237c4.38-1.493,10.579-4.348,18.163-8.368l9.494-3.237
						C163.175,136.688,156.976,139.543,152.596,141.037"/>
				</g>
			</g>
			<g enable-background="new    ">
				<defs>
					<path id="XMLID_104_" enable-background="new    " d="M124.917,92.465c-1.122-4.034,2.058-9.659,8.93-15.946l9.493-3.237
						c-6.871,6.287-10.051,11.912-8.93,15.946c-3.16,1.073-6.32,2.149-9.478,3.231C124.927,92.462,124.921,92.464,124.917,92.465z"
						/>
				</defs>
				<clipPath id="XMLID_172_">
					<use xlink:href="#XMLID_104_" />
				</clipPath>
				<g clip-path="url(#XMLID_172_)" enable-background="new    ">
					<path fill="#858585" d="M134.41,89.229l-9.493,3.237c-1.122-4.034,2.058-9.659,8.93-15.946l9.493-3.237
						C136.468,79.57,133.289,85.195,134.41,89.229"/>
				</g>
			</g>
			<g enable-background="new    ">
				<defs>
					<path id="XMLID_106_" enable-background="new    " d="M160.618,156.083l-9.493,3.237c-3.021-3.899-5.886-8.188-8.542-12.779
						l9.494-3.237C154.733,147.896,157.598,152.185,160.618,156.083z"/>
				</defs>
				<clipPath id="XMLID_173_">
					<use xlink:href="#XMLID_106_" />
				</clipPath>
				<g clip-path="url(#XMLID_173_)" enable-background="new    ">
					<path fill="#858585" d="M160.618,156.083l-9.493,3.237c-3.021-3.899-5.886-8.188-8.542-12.779l9.494-3.237
						C154.733,147.896,157.598,152.185,160.618,156.083"/>
				</g>
			</g>
			<g enable-background="new    ">
				<defs>
					<path id="XMLID_108_" enable-background="new    " d="M137.004,100.231l-9.494,3.237c-1.064-3.719-1.938-7.412-2.594-11.003
						l9.493-3.237C135.066,92.819,135.94,96.513,137.004,100.231z"/>
				</defs>
				<clipPath id="XMLID_174_">
					<use xlink:href="#XMLID_108_" />
				</clipPath>
				<g clip-path="url(#XMLID_174_)" enable-background="new    ">
					<path fill="#858585" d="M137.004,100.231l-9.494,3.237c-1.064-3.719-1.938-7.412-2.594-11.003l9.493-3.237
						C135.066,92.819,135.94,96.513,137.004,100.231"/>
				</g>
			</g>
			<g enable-background="new    ">
				<defs>
					<path id="XMLID_110_" enable-background="new    " d="M132.724,89.501l-9.494,3.237c-1.596-5.877,3.889-12.611,8.987-17.372
						l9.493-3.237C136.614,76.89,131.128,83.624,132.724,89.501z"/>
				</defs>
				<clipPath id="XMLID_175_">
					<use xlink:href="#XMLID_110_" />
				</clipPath>
				<g clip-path="url(#XMLID_175_)" enable-background="new    ">
					<path d="M132.724,89.501l-9.494,3.237c-1.596-5.877,3.889-12.611,8.987-17.372l9.493-3.237
						C136.614,76.89,131.128,83.624,132.724,89.501"/>
				</g>
			</g>
			<g enable-background="new    ">
				<defs>
					<path id="XMLID_112_" enable-background="new    " d="M159.762,157.802l-9.494,3.237c-3.475-4.428-6.757-9.362-9.755-14.674
						l9.494-3.237C153.005,148.44,156.288,153.374,159.762,157.802z"/>
				</defs>
				<clipPath id="XMLID_176_">
					<use xlink:href="#XMLID_112_" />
				</clipPath>
				<g clip-path="url(#XMLID_176_)" enable-background="new    ">
					<path d="M159.762,157.802l-9.494,3.237c-3.475-4.428-6.757-9.362-9.755-14.674l9.494-3.237
						C153.005,148.44,156.288,153.374,159.762,157.802"/>
				</g>
			</g>
			<g>
				<polygon points="150.007,143.128 140.513,146.365 139.87,145.224 149.364,141.987 				"/>
			</g>
			<g enable-background="new    ">
				<defs>
					<path id="XMLID_114_" enable-background="new    " d="M136.019,102.881l-9.494,3.237c-1.384-4.517-2.489-9.015-3.294-13.38
						l9.494-3.237C133.53,93.866,134.634,98.365,136.019,102.881z"/>
				</defs>
				<clipPath id="XMLID_177_">
					<use xlink:href="#XMLID_114_" />
				</clipPath>
				<g clip-path="url(#XMLID_177_)" enable-background="new    ">
					<path d="M136.019,102.881l-9.494,3.237c-1.384-4.517-2.489-9.015-3.294-13.38l9.494-3.237
						C133.53,93.866,134.634,98.365,136.019,102.881"/>
				</g>
			</g>
			<g>
				<polygon points="136.819,105.506 127.326,108.744 126.525,106.118 136.019,102.881 				"/>
			</g>
			<g>
				<path d="M264.576,134.896l0.197,0.581l-0.349,0.406c-3.287,3.917-7.651,7.918-12.977,11.895l-0.921,0.686l-0.408-1.269
					c-1.979-6.03-7.358-16.643-15.185-29.937c-9.722,6.962-21.355,14.431-32.954,21.173c12.087,16.94,18.976,23.273,21.29,23.566
					l0.553,1.919c-4.595,2.078-9.342,3.979-15.387,6.161c-1.014,0.597-2.194,0.805-3.525,0.636
					c-5.59-0.707-13.831-8.041-23.452-21.017c-8.057,4.059-15.243,6.974-20.802,8.448l-0.517,0.138l-0.378-0.48
					c-3.475-4.428-6.757-9.362-9.755-14.674l-0.644-1.141l1.08-0.287c4.381-1.183,11.389-4.3,20.315-9.032
					c-7.442-12.511-14.986-27.201-21.368-41.616c-6.667,5.05-10.822,9.3-11.743,12.026l-0.829,2.428l-0.8-2.625
					c-1.385-4.516-2.489-9.015-3.295-13.38c-1.596-5.877,3.89-12.611,8.986-17.372c-6.748-17.983-10.185-31.391-12.705-41.21
					l-0.15-0.584l0.386-0.374c3.366-3.281,7.789-6.039,13.135-8.204l0.901-0.362l0.286,1.095c2.033,7.722,7.472,21.44,14.946,37.737
					c9.749-5.424,21.493-10.433,33.292-14.191c-14.417-22.298-19.329-26.805-20.98-27.491l0.121-1.909
					c5.789-0.145,11.25,0.105,15.377,0.337c0.414-0.057,0.851-0.054,1.305,0.004c6.584,0.833,17.063,13.128,25.075,23.896
					c7.896-1.413,15.129-2.146,20.952-2.118c4.111,4.05,7.371,8.055,10.357,12.192l1.055,1.466l-1.57,0.101
					c-4.576,0.28-11.661,1.674-20.042,3.942c7.387,10.504,14.811,22.176,21.048,33.099c8.53-5.518,11.111-8.206,11.764-9.498
					l0.796-1.585l0.739,1.788c1.358,3.256,2.422,6.502,3.17,9.637c1.226,3.386-1.646,7.954-9.016,14.309
					c6.47,12.732,9.765,22.356,12.427,30.11L264.576,134.896z M251.296,145.417c4.636-3.538,8.49-7.083,11.475-10.552
					c-2.69-7.84-6.032-17.599-12.681-30.555l-0.391-0.764l0.566-0.476c9.166-7.788,9.631-11.259,9.091-12.643
					c-0.654-2.694-1.476-5.302-2.495-7.938c-1.856,2.2-5.847,5.251-12.115,9.265l-0.707,0.458l-0.483-0.856
					c-6.532-11.522-14.437-23.933-22.254-34.956l-0.839-1.192l1.213-0.34c8.223-2.279,15.077-3.716,19.992-4.197
					c-2.563-3.451-5.322-6.792-8.218-9.948c-5.792,0.006-12.981,0.753-20.822,2.181l-0.501,0.095l-0.354-0.477
					c-10.776-14.542-19.445-22.995-24.127-23.587c-0.359-0.045-0.696-0.044-1.008,0.003c-3.625-0.194-8.061-0.403-12.836-0.376
					c4.039,3.838,10.771,13.07,20.09,27.548l0.73,1.134l-1.104,0.345c-12.389,3.859-24.774,9.14-34.887,14.849l-0.77,0.441
					l-0.436-0.946c-7.411-16.071-12.901-29.779-15.211-37.944c-4.573,1.954-8.404,4.358-11.397,7.159
					c2.523,9.833,5.996,23.196,12.727,41.03l0.259,0.677l-0.465,0.427c-6.871,6.287-10.051,11.912-8.952,15.846
					c0.679,3.691,1.553,7.384,2.617,11.104c2.381-3.746,7.729-8.178,12.155-11.466l0.818-0.611l0.473,1.083
					c6.605,15.035,14.519,30.448,22.277,43.387l0.567,0.946l-0.84,0.45c-8.848,4.733-15.697,7.849-20.379,9.285
					c2.656,4.591,5.521,8.879,8.541,12.778c5.535-1.531,12.646-4.46,20.605-8.502l0.604-0.303l0.455,0.622
					c9.411,12.818,17.503,20.242,22.544,20.88c1.062,0.135,1.988-0.031,2.764-0.513c5.259-1.91,9.439-3.553,13.38-5.273
					c-5.74-3.617-15.283-16.342-20.976-24.377l-0.67-0.95l0.872-0.507c12.124-7.008,24.35-14.858,34.414-22.11l0.709-0.501
					l0.514,0.859C243.5,128.374,248.941,138.935,251.296,145.417"/>
			</g>
		</g>
	</g>
</g>
</svg>
